<?xml version="1.0" encoding="UTF-8" standalone="no"?>
<!-- Created with Inkscape (http://www.inkscape.org/) -->

<svg
   width="9.2233515mm"
   height="11.390115mm"
   viewBox="0 0 9.2233515 11.390114"
   version="1.1"
   id="svg1"
   xml:space="preserve"
   sodipodi:docname="gps_inacrtive.svg"
   inkscape:version="1.4.2 (f4327f4, 2025-05-13)"
   xmlns:inkscape="http://www.inkscape.org/namespaces/inkscape"
   xmlns:sodipodi="http://sodipodi.sourceforge.net/DTD/sodipodi-0.dtd"
   xmlns="http://www.w3.org/2000/svg"
   xmlns:svg="http://www.w3.org/2000/svg"><sodipodi:namedview
     id="namedview1"
     pagecolor="#ffffff"
     bordercolor="#000000"
     borderopacity="0.25"
     inkscape:showpageshadow="2"
     inkscape:pageopacity="0.0"
     inkscape:pagecheckerboard="0"
     inkscape:deskcolor="#d1d1d1"
     inkscape:document-units="mm"
     showgrid="false"
     inkscape:zoom="4.3293833"
     inkscape:cx="33.261088"
     inkscape:cy="-17.900933"
     inkscape:window-width="1672"
     inkscape:window-height="1353"
     inkscape:window-x="1721"
     inkscape:window-y="510"
     inkscape:window-maximized="0"
     inkscape:current-layer="svg1" /><defs
     id="defs1" /><g
     id="path2"
     style="opacity:0.340292"
     transform="matrix(0.69257165,0,0,0.69257165,-5.8441911,0.52033576)"><path
       style="baseline-shift:baseline;display:inline;overflow:visible;vector-effect:none;fill:#008000;enable-background:accumulate;stop-color:#000000;stop-opacity:1"
       d="m 14.542185,14.683384 c -1.874961,-0.0966 -3.596762,-0.639101 -4.509461,-1.420822 -0.876048,-0.750331 -0.774727,-1.715083 0.233261,-2.221067 0.604048,-0.303216 1.418454,-0.473144 2.863585,-0.597496 l 0.132074,-0.01136 0.05126,0.06721 c 0.02819,0.03696 0.04786,0.07061 0.04371,0.07476 -0.0042,0.0042 -0.132716,0.02502 -0.285693,0.04636 -1.093077,0.152522 -2.011889,0.437177 -2.567256,0.795355 -0.167817,0.108232 -0.381153,0.323195 -0.437382,0.440718 -0.153295,0.320401 0.02204,0.642894 0.511825,0.941407 0.620884,0.378413 1.835447,0.683294 3.18243,0.798858 2.648729,0.227245 5.449265,-0.26128 6.219799,-1.084983 0.149896,-0.16024 0.200482,-0.266506 0.200713,-0.421638 9.29e-4,-0.621625 -1.21789,-1.205222 -3.072189,-1.471037 -0.152656,-0.02188 -0.279149,-0.04132 -0.281095,-0.0432 -0.0019,-0.0019 0.02318,-0.03515 0.05583,-0.07395 l 0.05937,-0.07054 0.241939,0.02039 c 1.469893,0.12387 2.430967,0.355928 2.980777,0.719729 0.155372,0.102807 0.358816,0.302398 0.432001,0.423818 0.119742,0.198663 0.157396,0.331296 0.158962,0.559925 0.0019,0.276425 -0.05788,0.460624 -0.233637,0.719995 -0.568282,0.838621 -2.273607,1.553577 -4.18489,1.754509 -0.541157,0.05689 -1.291411,0.07906 -1.795932,0.05307 z m 0.305189,-2.873965 C 13.198667,9.9293767 11.745793,7.8619117 11.136271,6.5284587 10.723332,5.6250687 10.588816,5.0477878 10.641344,4.4044578 c 0.05177,-0.634044 0.181219,-1.10499 0.457839,-1.665658 0.649808,-1.317064 1.877642,-2.20776296 3.364633,-2.44078096 0.293657,-0.04602 0.963983,-0.04642 1.260148,-7.6e-4 1.017112,0.156814 1.891165,0.605605 2.587522,1.32858796 0.606093,0.629269 1.001135,1.382166 1.169857,2.229595 0.08622,0.433044 0.102161,0.95316 0.0403,1.314858 -0.21826,1.2761919 -1.416603,3.2947279 -3.39578,5.7199872 -0.198988,0.243837 -0.514233,0.61413 -0.970527,1.14 l -0.05683,0.0655 z m 0.709094,-5.2745033 c 0.560231,-0.122676 1.05925,-0.453289 1.376192,-0.911763 0.513015,-0.7421009 0.53387,-1.7016689 0.05389,-2.4793899 -0.129468,-0.209777 -0.433754,-0.519034 -0.653257,-0.663927 -0.89366,-0.589903 -2.08282,-0.464542 -2.828441,0.298175 -0.305724,0.312732 -0.510314,0.694688 -0.602035,1.123958 -0.04692,0.219584 -0.04768,0.657905 -0.0015,0.874703 0.201675,0.9473109 0.928224,1.6362399 1.883214,1.7857039 0.15789,0.02471 0.606606,0.0088 0.771969,-0.02746 z"
       id="path7" /><path
       style="baseline-shift:baseline;display:inline;overflow:visible;vector-effect:none;fill:#f9f9f9;enable-background:accumulate;stop-color:#000000;stop-opacity:1"
       d="m 15.876953,-0.69140625 c -0.521609,-0.0804168 -1.045616,-0.0799677 -1.568359,0.001953 -1.788871,0.28032385 -3.31366,1.38144936 -4.105469,2.98632815 -0.3201599,0.6489171 -0.4990891,1.2966176 -0.5585937,2.0253906 -0.067746,0.8297036 0.1362651,1.6458876 0.5820317,2.6210938 0.341167,0.7463724 1.245505,1.778145 1.894531,2.7050781 -0.864435,0.1207011 -1.738837,0.215958 -2.3046877,0.5000006 -0.7197302,0.361285 -1.2840802,1.01531 -1.3671875,1.80664 -0.083107,0.791331 0.32028,1.541106 0.9335937,2.066406 1.0259895,0.878754 2.5316565,1.403642 4.2018645,1.601523 l 0.04036,0.01371 0.865234,0.04492 c 0.584568,0.03011 1.343258,0.0075 1.953125,-0.05664 1.047538,-0.110127 2.03408,-0.357564 2.876953,-0.710937 0.842874,-0.353374 1.560557,-0.781954 2.03125,-1.476563 0.240024,-0.354212 0.407209,-0.86542 0.404297,-1.289062 -0.0023,-0.335769 -0.127303,-0.780544 -0.300781,-1.06836 -0.246078,-0.408199 -0.42124,-0.532379 -0.738318,-0.742184 C 20.1135,9.9386979 19.162929,9.8369687 18.222656,9.6992188 19.399007,8.0661472 20.295026,6.5840292 20.507812,5.3398437 20.601341,4.7929887 20.574445,4.2204423 20.462891,3.6601563 20.257947,2.6308003 19.763206,1.691585 19.03125,0.93164063 18.188291,0.05644974 17.092772,-0.50395654 15.876953,-0.69140625 Z"
       id="path8"
       sodipodi:nodetypes="scssscsssccccssccscssss" /></g><path
     style="fill:#cccccc;stroke-width:0.0487153"
     d="M 4.4386789,8.6992046 C 3.2968319,7.3971406 2.2906119,5.9652729 1.8684749,5.0417612 1.5824849,4.4160989 1.4893226,4.0162905 1.525702,3.5707384 1.5615565,3.1316175 1.6512089,2.8054537 1.8427879,2.4171509 c 0.450039,-0.9121612 1.300402,-1.52903408 2.33025,-1.69041574 0.203378,-0.0318722 0.667627,-0.0321492 0.872743,-5.2635e-4 0.704423,0.10860493 1.309767,0.41942489 1.792044,0.92014239 0.419763,0.4358139 0.693358,0.957249 0.81021,1.5441543 0.05971,0.299914 0.07075,0.6601316 0.02791,0.9106334 -0.15116,0.8838543 -0.981099,2.2818351 -2.351821,3.9615009 -0.137813,0.1688746 -0.356143,0.425329 -0.672159,0.7895317 l -0.03936,0.045363 z"
     id="path9" /><path
     style="fill:#b3b3b3;stroke-width:0.0487153"
     d="M 4.2273139,10.689631 C 2.9287689,10.622729 1.7362989,10.247008 1.1041891,9.7056102 0.49746307,9.1859522 0.56763507,8.5177923 1.265739,8.1673622 1.6840859,7.9573634 2.2481199,7.8396761 3.2489769,7.7535534 l 0.09147,-0.00787 0.0355,0.046548 c 0.01952,0.025597 0.03315,0.048903 0.03027,0.051777 -0.0029,0.00291 -0.09192,0.017328 -0.197863,0.032108 C 2.4513239,7.9817502 1.8149809,8.1788942 1.4303494,8.4269581 1.3141241,8.5019161 1.1663737,8.6507938 1.1274311,8.7321869 1.0212633,8.9540876 1.1426951,9.1774371 1.4819066,9.3841787 1.9119129,9.6462568 2.7530849,9.8574088 3.6859669,9.9374451 5.5204019,10.094828 7.4599739,9.75649 7.9936239,9.1860166 8.0974379,9.075039 8.1324719,9.0014421 8.1326319,8.8940021 8.1332749,8.4634823 7.2891559,8.0592995 6.0049209,7.8752036 c -0.105725,-0.015153 -0.193331,-0.028617 -0.194678,-0.029919 -0.0013,-0.00132 0.01605,-0.024344 0.03867,-0.051216 l 0.04112,-0.048854 0.16756,0.014122 c 1.018006,0.085789 1.683619,0.2465056 2.064402,0.4984639 0.107606,0.071201 0.248505,0.2094322 0.299191,0.2935243 0.08293,0.1375884 0.109008,0.2294462 0.110093,0.3877882 0.0013,0.1914441 -0.04009,0.3190151 -0.161811,0.4986481 -0.393576,0.5808049 -1.574635,1.0759629 -2.898336,1.2151229 -0.37479,0.0394 -0.894394,0.05476 -1.243811,0.03675 z"
     id="path1" /><path
     style="fill:#ffffff;stroke-width:0.0487153"
     d="m 4.9297779,5.0462331 c 0.388,-0.084962 0.733606,-0.3139351 0.953111,-0.6314612 0.3553,-0.513958 0.369743,-1.1785276 0.03732,-1.7171551 -0.089663,-0.1452856 -0.300403,-0.3594682 -0.452424,-0.459817 -0.618924,-0.4085501 -1.442502,-0.3217286 -1.958898,0.2065075 -0.211736,0.2165893 -0.353429,0.4811212 -0.416953,0.7784215 -0.0325,0.1520776 -0.03302,0.4556463 -10e-4,0.6057945 0.139675,0.6560806 0.642862,1.1332133 1.304261,1.2367279 0.10935,0.017113 0.420118,0.00609 0.534644,-0.019018 z"
     id="path10" /></svg>
