<?xml version="1.0" encoding="UTF-8" standalone="no"?>
<!-- Created with Inkscape (http://www.inkscape.org/) -->

<svg
   width="10.56347mm"
   height="10.56368mm"
   viewBox="0 0 10.56347 10.56368"
   version="1.1"
   id="svg1"
   xml:space="preserve"
   xmlns="http://www.w3.org/2000/svg"
   xmlns:svg="http://www.w3.org/2000/svg"><defs
     id="defs1" /><g
     id="layer1"
     transform="translate(-183.10892,-210.51336)"><g
       id="path12"
       style="opacity:1"><path
         style="baseline-shift:baseline;display:inline;overflow:visible;vector-effect:none;fill:#142a98;enable-background:accumulate;stop-color:#000000;stop-opacity:1"
         d="m 185.26762,220.14837 c -0.65122,-0.0844 -1.08451,-0.4859 -1.21388,-1.12469 -0.0353,-0.1743 -0.0354,-6.2814 -1.6e-4,-6.45557 0.13055,-0.64445 0.56482,-1.04408 1.22347,-1.12591 0.11473,-0.0142 6.11099,-0.0142 6.22571,0 0.65839,0.0818 1.09299,0.48146 1.22331,1.12501 0.0353,0.1743 0.0354,6.2814 2.3e-4,6.45558 -0.12356,0.60988 -0.50587,0.98851 -1.12474,1.11391 -0.0926,0.0187 -6.19247,0.0301 -6.33388,0.0117 z m 6.1876,-1.22713 c 0.09,-0.0416 0.0812,0.29763 0.0812,-3.1258 0,-3.42341 0.009,-3.08417 -0.0812,-3.1258 -0.0709,-0.0327 -6.05971,-0.0327 -6.13064,0 -0.09,0.0416 -0.0812,-0.29761 -0.0812,3.1258 0,3.36521 -0.005,3.08181 0.0646,3.11829 0.0582,0.0301 0.16007,0.0311 3.10612,0.0296 2.99625,-0.002 2.99625,-0.002 3.04108,-0.0221 z m -5.04146,-0.72128 c -0.31834,-0.0833 -0.51157,-0.41713 -0.42883,-0.74063 0.0414,-0.16213 -0.0468,-0.0667 1.41886,-1.53434 l 1.33766,-1.33948 -0.18304,-0.005 c -0.75412,-0.0196 -0.93197,-0.94061 -0.22934,-1.18776 0.0689,-0.0243 1.91474,-0.0306 2.01686,-0.007 0.21987,0.0509 0.40257,0.23359 0.45346,0.45345 0.0133,0.0579 0.0149,0.18097 0.0125,1.01815 l -0.002,0.95242 -0.0311,0.0805 c -0.25782,0.66906 -1.15729,0.467 -1.1739,-0.26373 l -0.004,-0.18321 -1.33478,1.33353 c -1.46309,1.46173 -1.37662,1.38175 -1.5385,1.42314 -0.0969,0.0248 -0.21789,0.0246 -0.31307,-2.3e-4 z"
         id="path13" /><path
         style="baseline-shift:baseline;display:inline;overflow:visible;vector-effect:none;fill:#4ea5e0;fill-opacity:0.254902;enable-background:accumulate;stop-color:#000000;stop-opacity:1"
         d="m 188.39062,210.51367 c -0.76458,0 -1.52972,1.8e-4 -2.11132,0.002 -0.29081,8.9e-4 -0.53512,0.003 -0.71289,0.004 -0.0889,6.8e-4 -0.16209,0.001 -0.2168,0.002 -0.0274,4.3e-4 -0.0487,0.001 -0.0703,0.002 -0.0216,6.1e-4 0.009,-0.008 -0.11524,0.008 -0.97272,0.12085 -1.81519,0.89496 -2.00976,1.85547 -0.0539,0.26656 -0.0231,0.18407 -0.0254,0.24805 -0.002,0.064 -0.004,0.14133 -0.006,0.23632 -0.003,0.18999 -0.006,0.44635 -0.008,0.74805 -0.004,0.6034 -0.006,1.3889 -0.006,2.17578 2e-5,0.78689 0.001,1.57432 0.006,2.17774 0.002,0.3017 0.004,0.55804 0.008,0.74804 0.002,0.095 0.004,0.17233 0.006,0.23633 0.002,0.064 -0.0286,-0.0185 0.0254,0.24805 0.19358,0.95585 1.02697,1.72735 1.99414,1.85351 h 0.002 c 0.21322,0.0276 0.13795,0.0107 0.19531,0.0117 0.0579,0.001 0.13272,0.001 0.22461,0.002 0.18379,0.001 0.43485,0.003 0.73242,0.004 0.59516,0.001 1.37432,-5.1e-4 2.15235,-0.002 0.77802,-0.001 1.5535,-0.002 2.14258,-0.006 0.29454,-0.002 0.54329,-0.004 0.72265,-0.006 0.0897,-0.001 0.16098,-0.003 0.2168,-0.004 0.0279,-6.2e-4 0.0502,-9.9e-4 0.0742,-0.002 0.024,-9.6e-4 -0.0685,0.029 0.17187,-0.0195 0.8994,-0.18224 1.66167,-0.93329 1.84375,-1.83203 0.0537,-0.26609 0.0212,-0.18604 0.0234,-0.25 0.002,-0.064 0.004,-0.14134 0.006,-0.23633 0.003,-0.18997 0.006,-0.4444 0.008,-0.74609 0.004,-0.60339 0.008,-1.39085 0.008,-2.17774 -2e-5,-0.78688 -0.003,-1.57432 -0.008,-2.17773 -0.002,-0.30171 -0.004,-0.55609 -0.008,-0.7461 -0.002,-0.095 -0.004,-0.17233 -0.006,-0.23632 -0.002,-0.064 0.0306,0.0165 -0.0234,-0.25 -0.19447,-0.96038 -1.03914,-1.73269 -2.01172,-1.85352 -0.12459,-0.0154 -0.0917,-0.007 -0.11328,-0.008 -0.0216,-6.1e-4 -0.0449,-0.002 -0.0723,-0.002 -0.0547,-8.4e-4 -0.12596,-0.001 -0.21485,-0.002 -0.17777,-0.001 -0.42404,-0.003 -0.71484,-0.004 -0.58161,-0.002 -1.34479,-0.002 -2.10938,-0.002 z m -3.24218,10.54492 -0.29102,-0.0879 0.13867,0.0684 z m -0.25586,-1.32617 c 0.0107,0.005 0.0302,0.006 0.043,0.0117 0.0137,0.006 0.0304,0.0248 0.043,0.0293 0.2206,0.0783 0.0771,0.0361 -0.0859,-0.041 z"
         id="path14" /></g><path
       style="fill:#142a98;fill-opacity:1;stroke-width:0.0366483"
       d="m 185.26762,220.14837 c -0.65122,-0.0844 -1.08451,-0.4859 -1.21388,-1.12469 -0.0353,-0.1743 -0.0354,-6.2814 -1.6e-4,-6.45557 0.13055,-0.64445 0.56482,-1.04408 1.22347,-1.12591 0.11473,-0.0142 6.11099,-0.0142 6.22571,0 0.65839,0.0818 1.09299,0.48146 1.22331,1.12501 0.0353,0.1743 0.0354,6.2814 2.3e-4,6.45558 -0.12356,0.60988 -0.50587,0.98851 -1.12474,1.11391 -0.0926,0.0187 -6.19247,0.0301 -6.33388,0.0117 z m 6.1876,-1.22713 c 0.09,-0.0416 0.0812,0.29763 0.0812,-3.1258 0,-3.42341 0.009,-3.08417 -0.0812,-3.1258 -0.0709,-0.0327 -6.05971,-0.0327 -6.13064,0 -0.09,0.0416 -0.0812,-0.29761 -0.0812,3.1258 0,3.36521 -0.005,3.08181 0.0646,3.11829 0.0582,0.0301 0.16007,0.0311 3.10612,0.0296 2.99625,-0.002 2.99625,-0.002 3.04108,-0.0221 z m -5.04146,-0.72128 c -0.31834,-0.0833 -0.51157,-0.41713 -0.42883,-0.74063 0.0414,-0.16213 -0.0468,-0.0667 1.41886,-1.53434 l 1.33766,-1.33948 -0.18304,-0.005 c -0.75412,-0.0196 -0.93197,-0.94061 -0.22934,-1.18776 0.0689,-0.0243 1.91474,-0.0306 2.01686,-0.007 0.21987,0.0509 0.40257,0.23359 0.45346,0.45345 0.0133,0.0579 0.0149,0.18097 0.0125,1.01815 l -0.002,0.95242 -0.0311,0.0805 c -0.25782,0.66906 -1.15729,0.467 -1.1739,-0.26373 l -0.004,-0.18321 -1.33478,1.33353 c -1.46309,1.46173 -1.37662,1.38175 -1.5385,1.42314 -0.0969,0.0248 -0.21789,0.0246 -0.31307,-2.3e-4 z"
       id="path11" /></g></svg>
