<?xml version="1.0" encoding="UTF-8" standalone="no"?>
<!-- Created with Inkscape (http://www.inkscape.org/) -->

<svg
   width="9.5658884mm"
   height="10.193031mm"
   viewBox="0 0 9.5658884 10.193031"
   version="1.1"
   id="svg1"
   xml:space="preserve"
   xmlns="http://www.w3.org/2000/svg"
   xmlns:svg="http://www.w3.org/2000/svg"><defs
     id="defs1" /><g
     id="layer1"
     transform="translate(-172.54031,-204.50303)"><path
       style="fill:#000080;stroke:none;stroke-width:2.277;stroke-dasharray:none"
       d="m 177.14303,213.54469 c -0.28977,-0.0197 -0.49345,-0.0509 -0.72762,-0.11115 -0.49859,-0.1282 -0.96195,-0.35892 -1.36452,-0.67942 -0.43987,-0.35018 -0.80128,-0.80877 -1.03704,-1.31591 -0.0816,-0.17531 -0.17688,-0.43441 -0.19991,-0.54306 -0.042,-0.19798 0.0592,-0.40679 0.24101,-0.49643 0.0343,-0.0169 0.0831,-0.0351 0.10849,-0.0404 0.14308,-0.0299 0.29665,0.0131 0.40475,0.11312 0.0678,0.0627 0.0976,0.11586 0.14403,0.25564 0.0551,0.16576 0.0843,0.23732 0.15889,0.3885 0.13919,0.28195 0.29121,0.49283 0.51994,0.72133 0.22232,0.22206 0.43589,0.37626 0.71158,0.51371 0.69758,0.34786 1.5109,0.38001 2.24539,0.089 0.0954,-0.0378 0.28957,-0.13492 0.38551,-0.19276 0.18446,-0.11124 0.3535,-0.24296 0.51043,-0.39781 0.13709,-0.13526 0.24507,-0.26516 0.34677,-0.41717 0.24624,-0.36814 0.38839,-0.75228 0.44709,-1.2083 0.0139,-0.10836 0.0192,-0.41169 0.01,-0.53864 -0.0674,-0.86739 -0.54002,-1.64526 -1.28103,-2.10832 -0.27825,-0.17387 -0.61719,-0.30427 -0.94819,-0.36478 -0.18172,-0.0332 -0.26675,-0.0401 -0.49714,-0.0401 -0.2296,0 -0.31341,0.008 -0.49387,0.0401 -0.14248,0.0263 -0.39758,0.0962 -0.417,0.11439 -0.002,0.002 0.11126,0.1603 0.25387,0.34995 0.29147,0.38754 0.31016,0.41383 0.33109,0.46581 0.0382,0.0948 0.0212,0.15727 -0.0526,0.1934 -0.0396,0.0193 -0.0346,0.0186 -0.91198,0.13952 -0.11771,0.0162 -0.61255,0.0846 -1.09965,0.15195 -0.4871,0.0673 -0.91971,0.12699 -0.96138,0.13259 -0.12302,0.0164 -0.18976,0.002 -0.24406,-0.0497 -0.0241,-0.0234 -0.0338,-0.0392 -0.0425,-0.0691 -0.0183,-0.063 -0.009,-0.11669 0.0449,-0.23774 0.0127,-0.0291 0.12228,-0.2838 0.24364,-0.5663 0.1894,-0.44092 0.64445,-1.49925 0.82665,-1.92257 0.0312,-0.0723 0.0686,-0.1494 0.0834,-0.17122 0.0291,-0.0435 0.0743,-0.0779 0.11773,-0.0895 0.0591,-0.016 0.13257,0.01 0.188,0.0653 0.0168,0.0168 0.16495,0.20999 0.32925,0.4291 0.16431,0.2191 0.30406,0.40401 0.31058,0.4109 0.0116,0.0123 0.0148,0.0115 0.14564,-0.0406 0.45367,-0.18022 0.86921,-0.26019 1.35198,-0.26024 0.65939,-4e-5 1.28277,0.17025 1.84701,0.50455 0.76504,0.45329 1.34049,1.16895 1.61567,2.00941 0.23484,0.71718 0.23996,1.49117 0.0148,2.21657 -0.14246,0.45875 -0.39383,0.91084 -0.71535,1.28649 -0.0926,0.10814 -0.31404,0.32768 -0.41786,0.41422 -0.58321,0.486 -1.25696,0.76944 -2.00506,0.84346 -0.0965,0.01 -0.44209,0.0178 -0.52019,0.0126 z"
       id="path4" /><g
       id="path3"
       style="opacity:1"><path
         style="baseline-shift:baseline;display:inline;overflow:visible;vector-effect:none;fill:#000080;enable-background:accumulate;stop-color:#000000;stop-opacity:1"
         d="m 177.14303,213.54469 c -0.28977,-0.0197 -0.49345,-0.0509 -0.72762,-0.11115 -0.49859,-0.1282 -0.96195,-0.35892 -1.36452,-0.67942 -0.43987,-0.35018 -0.80128,-0.80877 -1.03704,-1.31591 -0.0816,-0.17531 -0.17688,-0.43441 -0.19991,-0.54306 -0.042,-0.19798 0.0592,-0.40679 0.24101,-0.49643 0.0343,-0.0169 0.0831,-0.0351 0.10849,-0.0404 0.14308,-0.0299 0.29665,0.0131 0.40475,0.11312 0.0678,0.0627 0.0976,0.11586 0.14403,0.25564 0.0551,0.16576 0.0843,0.23732 0.15889,0.3885 0.13919,0.28195 0.29121,0.49283 0.51994,0.72133 0.22232,0.22206 0.43589,0.37626 0.71158,0.51371 0.69758,0.34786 1.5109,0.38001 2.24539,0.089 0.0954,-0.0378 0.28957,-0.13492 0.38551,-0.19276 0.18446,-0.11124 0.3535,-0.24296 0.51043,-0.39781 0.13709,-0.13526 0.24507,-0.26516 0.34677,-0.41717 0.24624,-0.36814 0.38839,-0.75228 0.44709,-1.2083 0.0139,-0.10836 0.0192,-0.41169 0.01,-0.53864 -0.0674,-0.86739 -0.54002,-1.64526 -1.28103,-2.10832 -0.27825,-0.17387 -0.61719,-0.30427 -0.94819,-0.36478 -0.18172,-0.0332 -0.26675,-0.0401 -0.49714,-0.0401 -0.2296,0 -0.31341,0.008 -0.49387,0.0401 -0.14248,0.0263 -0.39758,0.0962 -0.417,0.11439 -0.002,0.002 0.11126,0.1603 0.25387,0.34995 0.29147,0.38754 0.31016,0.41383 0.33109,0.46581 0.0382,0.0948 0.0212,0.15727 -0.0526,0.1934 -0.0396,0.0193 -0.0346,0.0186 -0.91198,0.13952 -0.11771,0.0162 -0.61255,0.0846 -1.09965,0.15195 -0.4871,0.0673 -0.91971,0.12699 -0.96138,0.13259 -0.12302,0.0164 -0.18976,0.002 -0.24406,-0.0497 -0.0241,-0.0234 -0.0338,-0.0392 -0.0425,-0.0691 -0.0183,-0.063 -0.009,-0.11669 0.0449,-0.23774 0.0127,-0.0291 0.12228,-0.2838 0.24364,-0.5663 0.1894,-0.44092 0.64445,-1.49925 0.82665,-1.92257 0.0312,-0.0723 0.0686,-0.1494 0.0834,-0.17122 0.0291,-0.0435 0.0743,-0.0779 0.11773,-0.0895 0.0591,-0.016 0.13257,0.01 0.188,0.0653 0.0168,0.0168 0.16495,0.20999 0.32925,0.4291 0.16431,0.2191 0.30406,0.40401 0.31058,0.4109 0.0116,0.0123 0.0148,0.0115 0.14564,-0.0406 0.45367,-0.18022 0.86921,-0.26019 1.35198,-0.26024 0.65939,-4e-5 1.28277,0.17025 1.84701,0.50455 0.76504,0.45329 1.34049,1.16895 1.61567,2.00941 0.23484,0.71718 0.23996,1.49117 0.0148,2.21657 -0.14246,0.45875 -0.39383,0.91084 -0.71535,1.28649 -0.0926,0.10814 -0.31404,0.32768 -0.41786,0.41422 -0.58321,0.486 -1.25696,0.76944 -2.00506,0.84346 -0.0965,0.01 -0.44209,0.0178 -0.52019,0.0126 z"
         id="path5" /><path
         style="baseline-shift:baseline;display:inline;overflow:visible;vector-effect:none;fill:#52a5e0;fill-opacity:0.254902;enable-background:accumulate;stop-color:#000000;stop-opacity:1"
         d="m 174.70312,204.55469 c -0.39238,0.10556 -0.58856,0.29036 -0.76562,0.55468 -4.1e-4,6.1e-4 -0.002,-6e-4 -0.002,0 -0.0971,0.14428 -0.0901,0.15346 -0.11328,0.20118 -0.0239,0.0492 -0.0455,0.0994 -0.0684,0.15234 l -0.002,0.002 c -0.18247,0.42397 -0.63652,1.48037 -0.82617,1.92188 -0.12121,0.28216 -0.24136,0.56313 -0.24023,0.56055 -0.042,0.0942 -0.0926,0.2039 -0.12696,0.38867 -0.035,0.18839 -0.0165,0.45874 0.0312,0.62304 0.0421,0.14457 0.24543,0.4729 0.34375,0.56836 l 0.004,0.004 0.004,0.004 c 0.0928,0.0884 0.22112,0.0496 0.34765,0.10351 -0.44422,0.37002 -0.71329,0.90106 -0.58789,1.49219 h -0.002 c 0.079,0.37261 0.16358,0.53011 0.2832,0.78711 0.31266,0.67255 0.77832,1.26398 1.35938,1.72656 0.52662,0.41927 1.13713,0.72262 1.78906,0.89063 0.22597,0.0581 0.46832,0.0835 0.71289,0.10937 l 0.0742,0.0273 0.15039,0.01 c 0.37554,0.025 0.39957,0.0149 0.71289,-0.0176 0.9632,-0.0962 1.87109,-0.47787 2.61719,-1.09961 0.21964,-0.18309 0.37203,-0.3378 0.55273,-0.54883 h 0.002 c 0.42433,-0.49576 0.74538,-1.07077 0.9375,-1.68945 0.29458,-0.94904 0.28722,-1.96545 -0.0215,-2.9082 -0.36176,-1.10489 -1.11543,-2.04122 -2.11719,-2.63477 -0.73474,-0.43532 -1.57228,-0.66411 -2.42773,-0.66406 -0.34744,4e-5 -0.67536,0.11917 -1.01172,0.19336 -0.0378,-0.0499 -0.0802,-0.1078 -0.11133,-0.14844 -0.0316,-0.0412 -0.0601,-0.077 -0.084,-0.10742 -0.0239,-0.0304 0.0591,0.0415 -0.125,-0.14258 v -0.002 c -0.28522,-0.28455 -0.69994,-0.51692 -1.28907,-0.35742 z m -1.07226,6.53125 h 0.002 c 6.7e-4,0.002 0.001,0.004 0.002,0.006 4.8e-4,0.002 -0.005,-0.008 -0.004,-0.006 z"
         id="path6" /></g></g></svg>
